<?xml version="1.0" standalone="no"?>
<!DOCTYPE svg PUBLIC "-//W3C//DTD SVG 20010904//EN"
 "http://www.w3.org/TR/2001/REC-SVG-20010904/DTD/svg10.dtd">
<svg version="1.0" xmlns="http://www.w3.org/2000/svg"
 width="228.000000pt" height="228.000000pt" viewBox="0 0 228.000000 228.000000"
 preserveAspectRatio="xMidYMid meet">
<metadata>
Created by potrace 1.14, written by Peter Selinger 2001-2017
</metadata>
<g transform="translate(0.000000,228.000000) scale(0.100000,-0.100000)"
fill="#000000" stroke="none">
<path d="M1090 2244 c0 -7 -21 -11 -57 -9 -32 1 -71 -2 -87 -6 -16 -5 -44 -10
-63 -11 -18 -1 -33 -6 -33 -10 0 -4 -3 -7 -7 -6 -15 5 -153 -46 -153 -55 0 -6
-3 -7 -7 -4 -3 4 -17 0 -30 -8 -13 -9 -23 -13 -23 -10 0 4 -12 -3 -26 -14 -15
-11 -30 -18 -35 -15 -5 3 -9 1 -9 -3 0 -5 -18 -19 -40 -33 -22 -14 -40 -29
-40 -34 0 -5 -3 -7 -6 -3 -11 11 -168 -141 -211 -205 -14 -21 -30 -38 -35 -38
-5 0 -7 -4 -3 -9 3 -6 -3 -14 -12 -20 -10 -6 -13 -11 -8 -11 6 0 6 -3 -1 -8
-6 -4 -27 -40 -47 -81 -21 -41 -41 -79 -46 -85 -5 -6 -7 -19 -6 -28 2 -10 -1
-18 -6 -18 -6 0 -7 -4 -4 -10 3 -5 1 -10 -5 -10 -6 0 -9 -4 -5 -9 3 -5 1 -12
-4 -15 -5 -4 -8 -17 -6 -31 1 -14 -1 -25 -5 -25 -7 0 -18 -47 -28 -120 -6 -43
-6 -268 0 -333 3 -27 11 -53 19 -58 9 -6 10 -9 2 -9 -9 0 -8 -11 3 -42 9 -24
17 -47 18 -53 6 -27 30 -91 37 -101 5 -6 7 -13 4 -16 -3 -3 1 -11 10 -18 8 -7
15 -21 15 -31 0 -11 5 -19 11 -19 6 0 9 -7 5 -15 -3 -9 0 -15 10 -15 8 0 13
-4 10 -9 -4 -5 5 -23 19 -39 14 -16 25 -33 25 -36 0 -7 5 -14 47 -64 51 -61
163 -168 163 -156 0 5 18 -8 51 -38 10 -10 19 -15 19 -11 0 3 8 0 18 -8 29
-24 82 -51 82 -42 0 4 5 0 11 -10 6 -9 14 -15 20 -12 5 4 9 1 9 -5 0 -6 6 -10
13 -8 6 1 31 -8 55 -19 23 -12 39 -17 36 -11 -4 6 5 2 20 -7 15 -10 29 -15 33
-11 3 3 12 1 20 -5 7 -6 13 -8 13 -4 0 4 6 2 13 -4 13 -10 39 -16 117 -25 19
-2 40 -5 45 -6 6 -1 12 -1 15 0 21 8 60 9 60 1 0 -10 19 -9 38 2 6 5 12 5 12
0 0 -10 65 -8 111 3 19 4 45 8 59 9 14 1 32 5 40 8 15 6 53 14 118 24 17 3 32
10 32 16 0 6 3 7 7 4 3 -4 15 1 26 10 15 13 19 14 13 3 -4 -8 0 -6 8 4 9 11
16 16 16 11 0 -5 5 -4 11 2 6 6 18 9 25 6 8 -3 17 2 20 11 3 9 14 16 23 16 9
0 22 5 29 12 7 7 12 9 12 5 0 -9 20 6 58 43 14 14 22 18 17 10 -4 -8 1 -6 13
5 12 11 33 29 47 40 33 25 41 33 90 90 22 25 52 60 67 77 15 17 25 35 22 39
-3 5 2 9 11 9 9 0 13 5 10 10 -3 6 0 10 7 10 13 0 67 78 72 102 1 7 16 41 33
75 29 58 43 97 42 117 -1 5 5 12 12 16 6 5 12 29 13 54 1 25 5 46 10 46 4 0 5
7 2 16 -3 9 -3 21 1 27 17 27 24 177 8 177 -5 0 -3 5 5 10 11 7 11 10 2 10 -9
0 -10 5 -4 17 6 10 6 29 0 50 -5 18 -6 38 -3 43 3 6 3 10 -2 10 -4 0 -8 12 -9
28 -1 46 -19 136 -34 176 -5 13 -6 27 -3 30 4 3 1 6 -6 6 -7 0 -9 5 -6 10 3 6
1 10 -4 10 -6 0 -11 8 -11 18 0 11 -18 47 -40 81 -22 34 -40 66 -40 72 0 5
-13 23 -30 39 -16 16 -30 37 -30 46 0 10 -3 15 -6 11 -8 -7 -28 12 -37 36 -3
9 -14 17 -23 17 -10 0 -15 3 -12 6 4 3 -7 18 -22 32 -43 41 -70 62 -70 56 0
-3 -10 5 -22 18 -13 13 -35 29 -50 36 -16 6 -28 16 -28 22 0 5 -7 10 -15 10
-8 0 -15 3 -15 8 0 10 -50 32 -72 32 -10 0 -18 5 -18 10 0 6 -9 10 -21 10 -11
0 -18 4 -15 8 2 4 -7 13 -22 19 -73 29 -98 38 -104 35 -5 -1 -8 2 -8 8 0 5
-13 8 -30 6 -16 -2 -30 0 -30 4 0 4 -6 7 -12 8 -21 1 -93 11 -98 13 -3 1 -8 1
-12 0 -5 0 -8 4 -8 10 0 8 -4 8 -13 0 -10 -8 -17 -7 -25 1 -7 7 -12 8 -12 2 0
-12 -59 -12 -77 -1 -6 4 -15 2 -19 -4 -4 -8 -9 -7 -15 2 -5 8 -9 9 -9 3z"/>
</g>
</svg>
